<?xml version="1.0" standalone="no"?>
<!DOCTYPE svg PUBLIC "-//W3C//DTD SVG 20010904//EN"
 "http://www.w3.org/TR/2001/REC-SVG-20010904/DTD/svg10.dtd">
<svg version="1.0" xmlns="http://www.w3.org/2000/svg"
 width="500.000000pt" height="500.000000pt" viewBox="0 0 500.000000 500.000000"
 preserveAspectRatio="xMidYMid meet">

<g transform="translate(0.000000,500.000000) scale(0.100000,-0.100000)"
fill="#000000" stroke="none">
<path d="M448 3987 c-142 -60 -224 -175 -235 -327 -12 -176 100 -338 266 -387
84 -24 200 -14 276 25 70 35 141 106 175 177 22 44 25 63 25 160 0 101 -2 115
-29 166 -35 71 -104 139 -176 175 -46 24 -70 29 -150 31 -82 3 -103 0 -152
-20z"/>
<path d="M1170 2505 l0 -1455 430 0 430 0 0 701 c0 389 4 699 9 697 4 -1 280
-317 612 -700 l604 -698 407 0 408 0 0 1455 0 1455 -430 0 -430 0 -2 -712 -3
-712 -605 711 -605 712 -412 0 -413 1 0 -1455z"/>
<path d="M514 2870 c-112 -23 -215 -104 -266 -208 -30 -61 -33 -74 -33 -162 0
-82 4 -103 27 -152 91 -197 314 -279 507 -188 75 36 146 107 180 180 30 65 40
176 21 257 -24 108 -126 218 -237 257 -56 20 -148 27 -199 16z"/>
<path d="M462 1720 c-308 -113 -339 -534 -50 -691 61 -33 67 -34 173 -34 100
0 115 3 167 28 76 37 159 128 188 204 18 49 21 74 18 153 -3 85 -7 102 -38
158 -39 74 -103 135 -180 170 -75 35 -201 41 -278 12z"/>
</g>
</svg>
